<mxfile host="app.diagrams.net" modified="2021-10-27T17:23:30.342Z" agent="5.0 (Windows)" etag="V0TE_ZEkJcp6k_x8aiP0" version="15.4.1" type="github" pages="3">
  <diagram id="8gxPcVhyWFga_-ock5Uq" name="Page-1">
    <mxGraphModel dx="2414" dy="784" grid="1" gridSize="10" guides="1" tooltips="1" connect="1" arrows="1" fold="1" page="1" pageScale="1" pageWidth="850" pageHeight="1100" math="0" shadow="0">
      <root>
        <mxCell id="0" />
        <mxCell id="1" parent="0" />
        <mxCell id="NmGWXquKxc6Ake-2fZ39-26" value="App DB" style="shape=cylinder3;whiteSpace=wrap;html=1;boundedLbl=1;backgroundOutline=1;size=15;fillColor=#bac8d3;strokeColor=#23445d;" vertex="1" parent="1">
          <mxGeometry x="90" y="640" width="60" height="80" as="geometry" />
        </mxCell>
        <mxCell id="V04dWPXA2Igl96lOC7Ne-37" value="" style="rounded=1;whiteSpace=wrap;html=1;" parent="1" vertex="1">
          <mxGeometry x="-820" y="40" width="1020" height="770" as="geometry" />
        </mxCell>
        <mxCell id="V04dWPXA2Igl96lOC7Ne-35" value="" style="rounded=0;whiteSpace=wrap;html=1;" parent="1" vertex="1">
          <mxGeometry x="-590" y="80" width="750" height="680" as="geometry" />
        </mxCell>
        <mxCell id="V04dWPXA2Igl96lOC7Ne-36" value="VPC" style="text;html=1;strokeColor=#b85450;fillColor=#f8cecc;align=center;verticalAlign=middle;whiteSpace=wrap;rounded=0;" parent="1" vertex="1">
          <mxGeometry x="-590" y="80" width="85" height="30" as="geometry" />
        </mxCell>
        <mxCell id="V04dWPXA2Igl96lOC7Ne-24" style="edgeStyle=orthogonalEdgeStyle;rounded=0;orthogonalLoop=1;jettySize=auto;html=1;entryX=0;entryY=0.5;entryDx=0;entryDy=0;" parent="1" target="V04dWPXA2Igl96lOC7Ne-7" edge="1">
          <mxGeometry relative="1" as="geometry">
            <mxPoint x="500" y="145" as="sourcePoint" />
          </mxGeometry>
        </mxCell>
        <mxCell id="NmGWXquKxc6Ake-2fZ39-38" style="edgeStyle=orthogonalEdgeStyle;rounded=0;orthogonalLoop=1;jettySize=auto;html=1;entryX=0;entryY=0.25;entryDx=0;entryDy=0;" edge="1" parent="1" source="V04dWPXA2Igl96lOC7Ne-5" target="NmGWXquKxc6Ake-2fZ39-48">
          <mxGeometry relative="1" as="geometry">
            <mxPoint x="-325" y="155" as="targetPoint" />
            <Array as="points">
              <mxPoint x="-330" y="161" />
              <mxPoint x="-330" y="161" />
            </Array>
          </mxGeometry>
        </mxCell>
        <mxCell id="NmGWXquKxc6Ake-2fZ39-66" style="edgeStyle=orthogonalEdgeStyle;rounded=0;orthogonalLoop=1;jettySize=auto;html=1;entryX=0;entryY=0.5;entryDx=0;entryDy=0;" edge="1" parent="1" source="V04dWPXA2Igl96lOC7Ne-5" target="NmGWXquKxc6Ake-2fZ39-49">
          <mxGeometry relative="1" as="geometry">
            <Array as="points">
              <mxPoint x="-300" y="290" />
              <mxPoint x="-300" y="308" />
              <mxPoint x="-200" y="308" />
              <mxPoint x="-200" y="324" />
            </Array>
          </mxGeometry>
        </mxCell>
        <mxCell id="V04dWPXA2Igl96lOC7Ne-5" value="&lt;div&gt;API&lt;/div&gt;&lt;div&gt;Getway&lt;/div&gt;&lt;div&gt;&lt;br&gt;&lt;/div&gt;&lt;div&gt;Instance&lt;/div&gt;&lt;div&gt;01&lt;br&gt;&lt;/div&gt;" style="rounded=0;whiteSpace=wrap;html=1;fillColor=#b1ddf0;strokeColor=#10739e;" parent="1" vertex="1">
          <mxGeometry x="-410" y="115" width="60" height="195" as="geometry" />
        </mxCell>
        <mxCell id="V04dWPXA2Igl96lOC7Ne-9" style="edgeStyle=orthogonalEdgeStyle;rounded=0;orthogonalLoop=1;jettySize=auto;html=1;entryX=0.5;entryY=0;entryDx=0;entryDy=0;" parent="1" source="V04dWPXA2Igl96lOC7Ne-7" edge="1">
          <mxGeometry relative="1" as="geometry">
            <Array as="points">
              <mxPoint x="570" y="80" />
              <mxPoint x="435" y="80" />
            </Array>
            <mxPoint x="435" y="105" as="targetPoint" />
          </mxGeometry>
        </mxCell>
        <mxCell id="NmGWXquKxc6Ake-2fZ39-30" style="edgeStyle=orthogonalEdgeStyle;rounded=0;orthogonalLoop=1;jettySize=auto;html=1;exitX=1;exitY=0;exitDx=0;exitDy=0;fillColor=#f0a30a;strokeColor=#BD7000;" edge="1" parent="1" source="NmGWXquKxc6Ake-2fZ39-48" target="NmGWXquKxc6Ake-2fZ39-7">
          <mxGeometry relative="1" as="geometry">
            <mxPoint x="-180" y="140" as="sourcePoint" />
            <Array as="points">
              <mxPoint x="-200" y="140" />
              <mxPoint x="70" y="140" />
              <mxPoint x="70" y="690" />
            </Array>
          </mxGeometry>
        </mxCell>
        <mxCell id="V04dWPXA2Igl96lOC7Ne-20" style="edgeStyle=orthogonalEdgeStyle;rounded=0;orthogonalLoop=1;jettySize=auto;html=1;entryX=0;entryY=0.5;entryDx=0;entryDy=0;" parent="1" source="V04dWPXA2Igl96lOC7Ne-14" edge="1">
          <mxGeometry relative="1" as="geometry">
            <mxPoint x="530" y="268.25" as="targetPoint" />
          </mxGeometry>
        </mxCell>
        <mxCell id="hri_NijtR724Ryg1L6hW-4" style="edgeStyle=orthogonalEdgeStyle;rounded=0;orthogonalLoop=1;jettySize=auto;html=1;entryX=0;entryY=0.5;entryDx=0;entryDy=0;" edge="1" parent="1" source="V04dWPXA2Igl96lOC7Ne-15">
          <mxGeometry relative="1" as="geometry">
            <mxPoint x="370" y="268.25" as="targetPoint" />
          </mxGeometry>
        </mxCell>
        <mxCell id="V04dWPXA2Igl96lOC7Ne-17" style="edgeStyle=orthogonalEdgeStyle;rounded=0;orthogonalLoop=1;jettySize=auto;html=1;entryX=0.5;entryY=1;entryDx=0;entryDy=0;" parent="1" target="V04dWPXA2Igl96lOC7Ne-14" edge="1">
          <mxGeometry relative="1" as="geometry">
            <Array as="points">
              <mxPoint x="570" y="320" />
              <mxPoint x="435" y="320" />
            </Array>
            <mxPoint x="415" y="300" as="targetPoint" />
            <mxPoint x="570" y="313.25" as="sourcePoint" />
          </mxGeometry>
        </mxCell>
        <mxCell id="NmGWXquKxc6Ake-2fZ39-32" style="edgeStyle=orthogonalEdgeStyle;rounded=0;orthogonalLoop=1;jettySize=auto;html=1;entryX=0.683;entryY=0;entryDx=0;entryDy=0;entryPerimeter=0;fillColor=#1ba1e2;strokeColor=#006EAF;" edge="1" parent="1" source="NmGWXquKxc6Ake-2fZ39-49" target="NmGWXquKxc6Ake-2fZ39-11">
          <mxGeometry relative="1" as="geometry">
            <mxPoint x="40" y="278.29999999999995" as="sourcePoint" />
            <mxPoint x="130" y="640" as="targetPoint" />
          </mxGeometry>
        </mxCell>
        <mxCell id="V04dWPXA2Igl96lOC7Ne-31" style="edgeStyle=orthogonalEdgeStyle;rounded=0;orthogonalLoop=1;jettySize=auto;html=1;entryX=0;entryY=0.5;entryDx=0;entryDy=0;" parent="1" source="V04dWPXA2Igl96lOC7Ne-27" target="V04dWPXA2Igl96lOC7Ne-28" edge="1">
          <mxGeometry relative="1" as="geometry" />
        </mxCell>
        <mxCell id="V04dWPXA2Igl96lOC7Ne-27" value="User" style="shape=umlActor;verticalLabelPosition=bottom;verticalAlign=top;html=1;outlineConnect=0;" parent="1" vertex="1">
          <mxGeometry x="-810" y="270" width="30" height="60" as="geometry" />
        </mxCell>
        <mxCell id="NmGWXquKxc6Ake-2fZ39-2" style="edgeStyle=orthogonalEdgeStyle;rounded=0;orthogonalLoop=1;jettySize=auto;html=1;entryX=0.625;entryY=0.2;entryDx=0;entryDy=0;entryPerimeter=0;" edge="1" parent="1" source="V04dWPXA2Igl96lOC7Ne-28" target="hri_NijtR724Ryg1L6hW-7">
          <mxGeometry relative="1" as="geometry" />
        </mxCell>
        <mxCell id="V04dWPXA2Igl96lOC7Ne-28" value="Browser" style="rounded=1;whiteSpace=wrap;html=1;absoluteArcSize=1;arcSize=14;strokeWidth=2;fillColor=#ffe6cc;strokeColor=#d79b00;" parent="1" vertex="1">
          <mxGeometry x="-735" y="330" width="70" height="40" as="geometry" />
        </mxCell>
        <mxCell id="V04dWPXA2Igl96lOC7Ne-38" value="Micro-services Application Design" style="text;html=1;strokeColor=#6c8ebf;fillColor=#dae8fc;align=center;verticalAlign=middle;whiteSpace=wrap;rounded=0;" parent="1" vertex="1">
          <mxGeometry x="-720" y="40" width="270" height="30" as="geometry" />
        </mxCell>
        <mxCell id="NmGWXquKxc6Ake-2fZ39-12" style="edgeStyle=orthogonalEdgeStyle;rounded=0;orthogonalLoop=1;jettySize=auto;html=1;" edge="1" parent="1" source="hri_NijtR724Ryg1L6hW-5" target="V04dWPXA2Igl96lOC7Ne-5">
          <mxGeometry relative="1" as="geometry">
            <Array as="points">
              <mxPoint x="-435" y="280" />
              <mxPoint x="-435" y="240" />
            </Array>
          </mxGeometry>
        </mxCell>
        <mxCell id="NmGWXquKxc6Ake-2fZ39-13" style="edgeStyle=orthogonalEdgeStyle;rounded=0;orthogonalLoop=1;jettySize=auto;html=1;entryX=0;entryY=0.5;entryDx=0;entryDy=0;" edge="1" parent="1" source="hri_NijtR724Ryg1L6hW-5" target="NmGWXquKxc6Ake-2fZ39-5">
          <mxGeometry relative="1" as="geometry">
            <Array as="points">
              <mxPoint x="-435" y="460" />
              <mxPoint x="-435" y="485" />
            </Array>
          </mxGeometry>
        </mxCell>
        <mxCell id="hri_NijtR724Ryg1L6hW-5" value="&lt;div&gt;AWS&lt;/div&gt;&lt;div&gt;&lt;br&gt;&lt;/div&gt;&lt;div&gt;Load&lt;/div&gt;Balancer" style="rounded=0;whiteSpace=wrap;html=1;fillColor=#b1ddf0;strokeColor=#10739e;" vertex="1" parent="1">
          <mxGeometry x="-520" y="259.5" width="60" height="230" as="geometry" />
        </mxCell>
        <mxCell id="hri_NijtR724Ryg1L6hW-10" style="edgeStyle=orthogonalEdgeStyle;rounded=0;orthogonalLoop=1;jettySize=auto;html=1;" edge="1" parent="1" source="hri_NijtR724Ryg1L6hW-7" target="hri_NijtR724Ryg1L6hW-5">
          <mxGeometry relative="1" as="geometry" />
        </mxCell>
        <mxCell id="hri_NijtR724Ryg1L6hW-7" value="&lt;div&gt;DNS&lt;/div&gt;" style="ellipse;shape=cloud;whiteSpace=wrap;html=1;fillColor=none;gradientColor=none;" vertex="1" parent="1">
          <mxGeometry x="-665" y="410.75" width="60" height="55" as="geometry" />
        </mxCell>
        <mxCell id="NmGWXquKxc6Ake-2fZ39-67" style="edgeStyle=orthogonalEdgeStyle;rounded=0;orthogonalLoop=1;jettySize=auto;html=1;entryX=0;entryY=0.25;entryDx=0;entryDy=0;" edge="1" parent="1" source="NmGWXquKxc6Ake-2fZ39-5" target="NmGWXquKxc6Ake-2fZ39-6">
          <mxGeometry relative="1" as="geometry">
            <Array as="points">
              <mxPoint x="-330" y="429" />
              <mxPoint x="-330" y="429" />
            </Array>
          </mxGeometry>
        </mxCell>
        <mxCell id="NmGWXquKxc6Ake-2fZ39-68" style="edgeStyle=orthogonalEdgeStyle;rounded=0;orthogonalLoop=1;jettySize=auto;html=1;entryX=0;entryY=0.5;entryDx=0;entryDy=0;" edge="1" parent="1" source="NmGWXquKxc6Ake-2fZ39-5" target="NmGWXquKxc6Ake-2fZ39-10">
          <mxGeometry relative="1" as="geometry">
            <Array as="points">
              <mxPoint x="-270" y="568" />
              <mxPoint x="-270" y="584" />
            </Array>
          </mxGeometry>
        </mxCell>
        <mxCell id="NmGWXquKxc6Ake-2fZ39-5" value="&lt;div&gt;API&lt;/div&gt;&lt;div&gt;Getway&lt;/div&gt;&lt;div&gt;&lt;br&gt;&lt;/div&gt;&lt;div&gt;Instance&lt;/div&gt;&lt;div&gt;02&lt;/div&gt;" style="rounded=0;whiteSpace=wrap;html=1;fillColor=#b1ddf0;strokeColor=#10739e;" vertex="1" parent="1">
          <mxGeometry x="-410" y="380" width="60" height="210" as="geometry" />
        </mxCell>
        <mxCell id="NmGWXquKxc6Ake-2fZ39-31" style="edgeStyle=orthogonalEdgeStyle;rounded=0;orthogonalLoop=1;jettySize=auto;html=1;entryX=1;entryY=0;entryDx=0;entryDy=15;entryPerimeter=0;fillColor=#f0a30a;strokeColor=#BD7000;" edge="1" parent="1" source="NmGWXquKxc6Ake-2fZ39-6" target="NmGWXquKxc6Ake-2fZ39-7">
          <mxGeometry relative="1" as="geometry">
            <Array as="points">
              <mxPoint x="70" y="400" />
              <mxPoint x="70" y="665" />
            </Array>
          </mxGeometry>
        </mxCell>
        <mxCell id="NmGWXquKxc6Ake-2fZ39-7" value="Order DB" style="shape=cylinder3;whiteSpace=wrap;html=1;boundedLbl=1;backgroundOutline=1;size=15;fillColor=#bac8d3;strokeColor=#23445d;" vertex="1" parent="1">
          <mxGeometry x="-10" y="650" width="60" height="80" as="geometry" />
        </mxCell>
        <mxCell id="NmGWXquKxc6Ake-2fZ39-8" value="&lt;div&gt;Spring-Security&lt;/div&gt;" style="rhombus;whiteSpace=wrap;html=1;fillColor=#e1d5e7;strokeColor=#9673a6;" vertex="1" parent="1">
          <mxGeometry x="-100" y="409.5" width="130" height="80" as="geometry" />
        </mxCell>
        <mxCell id="NmGWXquKxc6Ake-2fZ39-11" value="App DB" style="shape=cylinder3;whiteSpace=wrap;html=1;boundedLbl=1;backgroundOutline=1;size=15;fillColor=#bac8d3;strokeColor=#23445d;" vertex="1" parent="1">
          <mxGeometry x="90" y="645" width="60" height="80" as="geometry" />
        </mxCell>
        <mxCell id="NmGWXquKxc6Ake-2fZ39-33" style="edgeStyle=orthogonalEdgeStyle;rounded=0;orthogonalLoop=1;jettySize=auto;html=1;fillColor=#1ba1e2;strokeColor=#006EAF;" edge="1" parent="1" source="NmGWXquKxc6Ake-2fZ39-10">
          <mxGeometry relative="1" as="geometry">
            <mxPoint x="120" y="650" as="targetPoint" />
          </mxGeometry>
        </mxCell>
        <mxCell id="NmGWXquKxc6Ake-2fZ39-29" value="Order DB" style="shape=cylinder3;whiteSpace=wrap;html=1;boundedLbl=1;backgroundOutline=1;size=15;fillColor=#bac8d3;strokeColor=#23445d;" vertex="1" parent="1">
          <mxGeometry x="-10" y="660" width="60" height="80" as="geometry" />
        </mxCell>
        <mxCell id="NmGWXquKxc6Ake-2fZ39-27" value="Delivery DB" style="shape=cylinder3;whiteSpace=wrap;html=1;boundedLbl=1;backgroundOutline=1;size=15;fillColor=#bac8d3;strokeColor=#23445d;" vertex="1" parent="1">
          <mxGeometry x="90" y="655" width="60" height="80" as="geometry" />
        </mxCell>
        <mxCell id="NmGWXquKxc6Ake-2fZ39-55" value="" style="group" vertex="1" connectable="0" parent="1">
          <mxGeometry x="-185" y="246.88" width="120" height="133.12" as="geometry" />
        </mxCell>
        <mxCell id="NmGWXquKxc6Ake-2fZ39-49" value="&lt;div&gt;Micro-Service&lt;/div&gt;&lt;div&gt;Business Logic&lt;/div&gt;&lt;div&gt;Example:&lt;/div&gt;&lt;div&gt;Delivery-Service&lt;/div&gt;&lt;div&gt;(DDD - Bounded Context)&lt;/div&gt;" style="rounded=1;whiteSpace=wrap;html=1;fillColor=#d5e8d4;strokeColor=#82b366;" vertex="1" parent="NmGWXquKxc6Ake-2fZ39-55">
          <mxGeometry y="20.359529411764704" width="120" height="112.7604705882353" as="geometry" />
        </mxCell>
        <mxCell id="NmGWXquKxc6Ake-2fZ39-50" value="SpringBoot" style="text;html=1;strokeColor=#d79b00;fillColor=#ffe6cc;align=center;verticalAlign=middle;whiteSpace=wrap;rounded=0;" vertex="1" parent="NmGWXquKxc6Ake-2fZ39-55">
          <mxGeometry y="16.287623529411764" width="120" height="16.60084705882353" as="geometry" />
        </mxCell>
        <mxCell id="NmGWXquKxc6Ake-2fZ39-51" value="&lt;b&gt;Rest API&lt;/b&gt;" style="text;html=1;strokeColor=#b85450;fillColor=#f8cecc;align=center;verticalAlign=middle;whiteSpace=wrap;rounded=0;" vertex="1" parent="NmGWXquKxc6Ake-2fZ39-55">
          <mxGeometry width="120" height="16.60084705882353" as="geometry" />
        </mxCell>
        <mxCell id="NmGWXquKxc6Ake-2fZ39-56" value="" style="group" vertex="1" connectable="0" parent="1">
          <mxGeometry x="-320" y="115" width="120" height="125" as="geometry" />
        </mxCell>
        <mxCell id="NmGWXquKxc6Ake-2fZ39-48" value="&lt;div&gt;Micro-Service&lt;/div&gt;&lt;div&gt;Business Logic&lt;/div&gt;&lt;div&gt;Example: &lt;br&gt;&lt;/div&gt;&lt;div&gt;Order-Servce&lt;/div&gt;&lt;div&gt;(DDD - Bounded Context)&lt;br&gt;&lt;/div&gt;" style="rounded=1;whiteSpace=wrap;html=1;fillColor=#d5e8d4;strokeColor=#82b366;" vertex="1" parent="NmGWXquKxc6Ake-2fZ39-56">
          <mxGeometry y="19.395833333333336" width="120" height="105.60416666666667" as="geometry" />
        </mxCell>
        <mxCell id="NmGWXquKxc6Ake-2fZ39-52" value="SpringBoot" style="text;html=1;strokeColor=#d79b00;fillColor=#ffe6cc;align=center;verticalAlign=middle;whiteSpace=wrap;rounded=0;" vertex="1" parent="NmGWXquKxc6Ake-2fZ39-56">
          <mxGeometry y="13.541666666666668" width="120" height="13.802083333333334" as="geometry" />
        </mxCell>
        <mxCell id="NmGWXquKxc6Ake-2fZ39-54" value="&lt;b&gt;Rest API&lt;/b&gt;" style="text;html=1;strokeColor=#b85450;fillColor=#f8cecc;align=center;verticalAlign=middle;whiteSpace=wrap;rounded=0;" vertex="1" parent="NmGWXquKxc6Ake-2fZ39-56">
          <mxGeometry width="120" height="13.802083333333334" as="geometry" />
        </mxCell>
        <mxCell id="NmGWXquKxc6Ake-2fZ39-57" value="" style="group" vertex="1" connectable="0" parent="1">
          <mxGeometry x="-320" y="380" width="120" height="130" as="geometry" />
        </mxCell>
        <mxCell id="NmGWXquKxc6Ake-2fZ39-6" value="Micro-Service&lt;div&gt;Business Logic&lt;/div&gt;&lt;div&gt;Example: &lt;br&gt;&lt;/div&gt;&lt;div&gt;Order-Servce&lt;/div&gt;&lt;div&gt;(DDD - Bounded Context)&lt;/div&gt;" style="rounded=1;whiteSpace=wrap;html=1;fillColor=#d5e8d4;strokeColor=#82b366;" vertex="1" parent="NmGWXquKxc6Ake-2fZ39-57">
          <mxGeometry y="22.28503038114528" width="120" height="107.71496961885472" as="geometry" />
        </mxCell>
        <mxCell id="NmGWXquKxc6Ake-2fZ39-45" value="SpringBoot" style="text;html=1;strokeColor=#d79b00;fillColor=#ffe6cc;align=center;verticalAlign=middle;whiteSpace=wrap;rounded=0;" vertex="1" parent="NmGWXquKxc6Ake-2fZ39-57">
          <mxGeometry y="15.558828944945681" width="120" height="15.858037193886945" as="geometry" />
        </mxCell>
        <mxCell id="NmGWXquKxc6Ake-2fZ39-46" value="&lt;b&gt;Rest API&lt;/b&gt;" style="text;html=1;strokeColor=#b85450;fillColor=#f8cecc;align=center;verticalAlign=middle;whiteSpace=wrap;rounded=0;" vertex="1" parent="NmGWXquKxc6Ake-2fZ39-57">
          <mxGeometry width="120" height="15.858037193886945" as="geometry" />
        </mxCell>
        <mxCell id="NmGWXquKxc6Ake-2fZ39-58" value="" style="group" vertex="1" connectable="0" parent="1">
          <mxGeometry x="-185" y="507" width="120" height="133" as="geometry" />
        </mxCell>
        <mxCell id="NmGWXquKxc6Ake-2fZ39-10" value="&lt;div&gt;Micro-Service&lt;/div&gt;&lt;div&gt;Business Logic&lt;/div&gt;&lt;div&gt;Example:&lt;/div&gt;&lt;div&gt;Delivery-Service&lt;/div&gt;&lt;div&gt;(DDD - Bounded Context)&lt;/div&gt;" style="rounded=1;whiteSpace=wrap;html=1;fillColor=#d5e8d4;strokeColor=#82b366;" vertex="1" parent="NmGWXquKxc6Ake-2fZ39-58">
          <mxGeometry y="20.341176470588238" width="120" height="112.65882352941176" as="geometry" />
        </mxCell>
        <mxCell id="NmGWXquKxc6Ake-2fZ39-42" value="SpringBoot" style="text;html=1;strokeColor=#d79b00;fillColor=#ffe6cc;align=center;verticalAlign=middle;whiteSpace=wrap;rounded=0;" vertex="1" parent="NmGWXquKxc6Ake-2fZ39-58">
          <mxGeometry y="16.27294117647059" width="120" height="16.585882352941177" as="geometry" />
        </mxCell>
        <mxCell id="NmGWXquKxc6Ake-2fZ39-43" value="&lt;b&gt;Rest API&lt;/b&gt;" style="text;html=1;strokeColor=#b85450;fillColor=#f8cecc;align=center;verticalAlign=middle;whiteSpace=wrap;rounded=0;" vertex="1" parent="NmGWXquKxc6Ake-2fZ39-58">
          <mxGeometry width="120" height="16.585882352941177" as="geometry" />
        </mxCell>
        <mxCell id="NmGWXquKxc6Ake-2fZ39-60" value="&lt;div&gt;Spring-Security&lt;/div&gt;" style="rhombus;whiteSpace=wrap;html=1;fillColor=#e1d5e7;strokeColor=#9673a6;" vertex="1" parent="1">
          <mxGeometry x="-110" y="150" width="130" height="80" as="geometry" />
        </mxCell>
        <mxCell id="NmGWXquKxc6Ake-2fZ39-61" style="edgeStyle=orthogonalEdgeStyle;rounded=0;orthogonalLoop=1;jettySize=auto;html=1;entryX=0.5;entryY=1;entryDx=0;entryDy=0;exitX=1;exitY=0.5;exitDx=0;exitDy=0;" edge="1" parent="1" source="NmGWXquKxc6Ake-2fZ39-50" target="NmGWXquKxc6Ake-2fZ39-60">
          <mxGeometry relative="1" as="geometry" />
        </mxCell>
        <mxCell id="NmGWXquKxc6Ake-2fZ39-62" style="edgeStyle=orthogonalEdgeStyle;rounded=0;orthogonalLoop=1;jettySize=auto;html=1;entryX=0.063;entryY=0.532;entryDx=0;entryDy=0;entryPerimeter=0;" edge="1" parent="1" source="NmGWXquKxc6Ake-2fZ39-48" target="NmGWXquKxc6Ake-2fZ39-60">
          <mxGeometry relative="1" as="geometry">
            <Array as="points">
              <mxPoint x="-170" y="193" />
              <mxPoint x="-170" y="193" />
            </Array>
          </mxGeometry>
        </mxCell>
        <mxCell id="NmGWXquKxc6Ake-2fZ39-64" style="edgeStyle=orthogonalEdgeStyle;rounded=0;orthogonalLoop=1;jettySize=auto;html=1;entryX=0.5;entryY=1;entryDx=0;entryDy=0;" edge="1" parent="1" source="NmGWXquKxc6Ake-2fZ39-10" target="NmGWXquKxc6Ake-2fZ39-8">
          <mxGeometry relative="1" as="geometry">
            <Array as="points">
              <mxPoint x="-35" y="530" />
            </Array>
          </mxGeometry>
        </mxCell>
        <mxCell id="NmGWXquKxc6Ake-2fZ39-65" style="edgeStyle=orthogonalEdgeStyle;rounded=0;orthogonalLoop=1;jettySize=auto;html=1;" edge="1" parent="1" source="NmGWXquKxc6Ake-2fZ39-6" target="NmGWXquKxc6Ake-2fZ39-8">
          <mxGeometry relative="1" as="geometry">
            <Array as="points">
              <mxPoint x="-170" y="449" />
              <mxPoint x="-170" y="449" />
            </Array>
          </mxGeometry>
        </mxCell>
        <mxCell id="NmGWXquKxc6Ake-2fZ39-70" value="Route 53" style="text;html=1;strokeColor=#b85450;fillColor=#f8cecc;align=center;verticalAlign=middle;whiteSpace=wrap;rounded=0;" vertex="1" parent="1">
          <mxGeometry x="-590" y="110" width="85" height="30" as="geometry" />
        </mxCell>
        <mxCell id="NmGWXquKxc6Ake-2fZ39-71" value="VM/EC2/EKS" style="text;html=1;strokeColor=#b85450;fillColor=#f8cecc;align=center;verticalAlign=middle;whiteSpace=wrap;rounded=0;" vertex="1" parent="1">
          <mxGeometry x="-590" y="140" width="85" height="30" as="geometry" />
        </mxCell>
        <mxCell id="NmGWXquKxc6Ake-2fZ39-77" style="edgeStyle=orthogonalEdgeStyle;rounded=0;orthogonalLoop=1;jettySize=auto;html=1;entryX=0;entryY=0.25;entryDx=0;entryDy=0;" edge="1" parent="1" source="NmGWXquKxc6Ake-2fZ39-72" target="NmGWXquKxc6Ake-2fZ39-49">
          <mxGeometry relative="1" as="geometry">
            <Array as="points">
              <mxPoint x="-250" y="295" />
            </Array>
          </mxGeometry>
        </mxCell>
        <mxCell id="NmGWXquKxc6Ake-2fZ39-78" style="edgeStyle=orthogonalEdgeStyle;rounded=0;orthogonalLoop=1;jettySize=auto;html=1;" edge="1" parent="1" source="NmGWXquKxc6Ake-2fZ39-72" target="NmGWXquKxc6Ake-2fZ39-48">
          <mxGeometry relative="1" as="geometry" />
        </mxCell>
        <mxCell id="NmGWXquKxc6Ake-2fZ39-72" value="HTTP" style="text;html=1;strokeColor=#996185;fillColor=#e6d0de;align=center;verticalAlign=middle;whiteSpace=wrap;rounded=0;gradientColor=#d5739d;fontStyle=1" vertex="1" parent="1">
          <mxGeometry x="-280" y="259.5" width="60" height="30" as="geometry" />
        </mxCell>
        <mxCell id="NmGWXquKxc6Ake-2fZ39-73" value="HTTP" style="text;html=1;strokeColor=#996185;fillColor=#e6d0de;align=center;verticalAlign=middle;whiteSpace=wrap;rounded=0;gradientColor=#d5739d;fontStyle=1" vertex="1" parent="1">
          <mxGeometry x="-260" y="530" width="60" height="30" as="geometry" />
        </mxCell>
        <mxCell id="NmGWXquKxc6Ake-2fZ39-75" style="edgeStyle=orthogonalEdgeStyle;rounded=0;orthogonalLoop=1;jettySize=auto;html=1;entryX=0.5;entryY=0;entryDx=0;entryDy=0;" edge="1" parent="1" source="NmGWXquKxc6Ake-2fZ39-48" target="NmGWXquKxc6Ake-2fZ39-72">
          <mxGeometry relative="1" as="geometry" />
        </mxCell>
        <mxCell id="NmGWXquKxc6Ake-2fZ39-76" style="edgeStyle=orthogonalEdgeStyle;rounded=0;orthogonalLoop=1;jettySize=auto;html=1;entryX=1;entryY=0.5;entryDx=0;entryDy=0;" edge="1" parent="1" source="NmGWXquKxc6Ake-2fZ39-50" target="NmGWXquKxc6Ake-2fZ39-72">
          <mxGeometry relative="1" as="geometry" />
        </mxCell>
        <mxCell id="NmGWXquKxc6Ake-2fZ39-82" style="edgeStyle=orthogonalEdgeStyle;curved=1;rounded=0;orthogonalLoop=1;jettySize=auto;html=1;entryX=1;entryY=0.25;entryDx=0;entryDy=0;strokeWidth=1;fillColor=#FF9999;exitX=0.75;exitY=1;exitDx=0;exitDy=0;" edge="1" parent="1" source="NmGWXquKxc6Ake-2fZ39-79" target="NmGWXquKxc6Ake-2fZ39-49">
          <mxGeometry relative="1" as="geometry">
            <mxPoint x="70" y="160" as="sourcePoint" />
            <Array as="points">
              <mxPoint x="70" y="130" />
              <mxPoint x="70" y="295" />
            </Array>
          </mxGeometry>
        </mxCell>
        <mxCell id="NmGWXquKxc6Ake-2fZ39-83" style="edgeStyle=orthogonalEdgeStyle;curved=1;rounded=0;orthogonalLoop=1;jettySize=auto;html=1;entryX=1;entryY=0.372;entryDx=0;entryDy=0;entryPerimeter=0;strokeWidth=1;fillColor=#FF9999;" edge="1" parent="1" source="NmGWXquKxc6Ake-2fZ39-79" target="NmGWXquKxc6Ake-2fZ39-48">
          <mxGeometry relative="1" as="geometry" />
        </mxCell>
        <mxCell id="NmGWXquKxc6Ake-2fZ39-79" value="Event-Driven" style="text;html=1;strokeColor=#996185;fillColor=#e6d0de;align=center;verticalAlign=middle;whiteSpace=wrap;rounded=0;fontStyle=1;gradientColor=#d5739d;" vertex="1" parent="1">
          <mxGeometry x="20" y="100" width="100" height="30" as="geometry" />
        </mxCell>
        <mxCell id="NmGWXquKxc6Ake-2fZ39-80" style="edgeStyle=orthogonalEdgeStyle;rounded=0;orthogonalLoop=1;jettySize=auto;html=1;entryX=0;entryY=0.25;entryDx=0;entryDy=0;strokeWidth=1;fillColor=#FF9999;curved=1;exitX=1.01;exitY=0.172;exitDx=0;exitDy=0;fontStyle=1;exitPerimeter=0;" edge="1" parent="1" source="NmGWXquKxc6Ake-2fZ39-48" target="NmGWXquKxc6Ake-2fZ39-79">
          <mxGeometry relative="1" as="geometry" />
        </mxCell>
        <mxCell id="NmGWXquKxc6Ake-2fZ39-81" style="edgeStyle=orthogonalEdgeStyle;curved=1;rounded=0;orthogonalLoop=1;jettySize=auto;html=1;entryX=0.906;entryY=1.045;entryDx=0;entryDy=0;entryPerimeter=0;strokeWidth=1;fillColor=#FF9999;" edge="1" parent="1" target="NmGWXquKxc6Ake-2fZ39-79">
          <mxGeometry relative="1" as="geometry">
            <mxPoint x="-65" y="310" as="sourcePoint" />
            <Array as="points">
              <mxPoint x="-65" y="310" />
              <mxPoint x="111" y="310" />
            </Array>
          </mxGeometry>
        </mxCell>
      </root>
    </mxGraphModel>
  </diagram>
  <diagram name="Copy of Page-1" id="NzlBID8SPmDq_KM9St18">
    <mxGraphModel dx="1893" dy="523" grid="1" gridSize="10" guides="1" tooltips="1" connect="1" arrows="1" fold="1" page="1" pageScale="1" pageWidth="850" pageHeight="1100" math="0" shadow="0">
      <root>
        <mxCell id="469_iaXLmMVdcfXLewLD-0" />
        <mxCell id="469_iaXLmMVdcfXLewLD-1" parent="469_iaXLmMVdcfXLewLD-0" />
        <mxCell id="7g_BsAm1kQergPTN9J-x-5" value="" style="rounded=0;whiteSpace=wrap;html=1;fillColor=none;gradientColor=none;" vertex="1" parent="469_iaXLmMVdcfXLewLD-1">
          <mxGeometry x="-130" y="140" width="270" height="270" as="geometry" />
        </mxCell>
        <mxCell id="469_iaXLmMVdcfXLewLD-2" value="App DB" style="shape=cylinder3;whiteSpace=wrap;html=1;boundedLbl=1;backgroundOutline=1;size=15;fillColor=#bac8d3;strokeColor=#23445d;" vertex="1" parent="469_iaXLmMVdcfXLewLD-1">
          <mxGeometry x="80" y="640" width="60" height="80" as="geometry" />
        </mxCell>
        <mxCell id="469_iaXLmMVdcfXLewLD-3" value="" style="rounded=1;whiteSpace=wrap;html=1;" vertex="1" parent="469_iaXLmMVdcfXLewLD-1">
          <mxGeometry x="-830" y="40" width="1020" height="770" as="geometry" />
        </mxCell>
        <mxCell id="469_iaXLmMVdcfXLewLD-4" value="" style="rounded=0;whiteSpace=wrap;html=1;" vertex="1" parent="469_iaXLmMVdcfXLewLD-1">
          <mxGeometry x="-600" y="80" width="770" height="680" as="geometry" />
        </mxCell>
        <mxCell id="469_iaXLmMVdcfXLewLD-5" value="VPC" style="text;html=1;strokeColor=#b85450;fillColor=#f8cecc;align=center;verticalAlign=middle;whiteSpace=wrap;rounded=0;" vertex="1" parent="469_iaXLmMVdcfXLewLD-1">
          <mxGeometry x="-600" y="80" width="85" height="30" as="geometry" />
        </mxCell>
        <mxCell id="469_iaXLmMVdcfXLewLD-6" style="edgeStyle=orthogonalEdgeStyle;rounded=0;orthogonalLoop=1;jettySize=auto;html=1;entryX=0;entryY=0.5;entryDx=0;entryDy=0;" edge="1" parent="469_iaXLmMVdcfXLewLD-1">
          <mxGeometry relative="1" as="geometry">
            <mxPoint x="500" y="145" as="sourcePoint" />
          </mxGeometry>
        </mxCell>
        <mxCell id="Nu_XBSxZCabCRwXYq7IZ-30" style="edgeStyle=orthogonalEdgeStyle;curved=1;rounded=0;orthogonalLoop=1;jettySize=auto;html=1;entryX=0;entryY=0.25;entryDx=0;entryDy=0;fontSize=13;fontColor=none;strokeWidth=1;fillColor=#FF9999;" edge="1" parent="469_iaXLmMVdcfXLewLD-1" source="469_iaXLmMVdcfXLewLD-9" target="469_iaXLmMVdcfXLewLD-41">
          <mxGeometry relative="1" as="geometry" />
        </mxCell>
        <mxCell id="469_iaXLmMVdcfXLewLD-9" value="&lt;div&gt;API&lt;/div&gt;&lt;div&gt;Getway&lt;/div&gt;&lt;div&gt;&lt;br&gt;&lt;/div&gt;&lt;div&gt;Instance&lt;/div&gt;&lt;div&gt;01&lt;br&gt;&lt;/div&gt;" style="rounded=0;whiteSpace=wrap;html=1;fillColor=#b1ddf0;strokeColor=#10739e;" vertex="1" parent="469_iaXLmMVdcfXLewLD-1">
          <mxGeometry x="-420" y="115" width="60" height="195" as="geometry" />
        </mxCell>
        <mxCell id="469_iaXLmMVdcfXLewLD-10" style="edgeStyle=orthogonalEdgeStyle;rounded=0;orthogonalLoop=1;jettySize=auto;html=1;entryX=0.5;entryY=0;entryDx=0;entryDy=0;" edge="1" parent="469_iaXLmMVdcfXLewLD-1">
          <mxGeometry relative="1" as="geometry">
            <Array as="points">
              <mxPoint x="570" y="80" />
              <mxPoint x="435" y="80" />
            </Array>
            <mxPoint x="435" y="105" as="targetPoint" />
          </mxGeometry>
        </mxCell>
        <mxCell id="469_iaXLmMVdcfXLewLD-12" style="edgeStyle=orthogonalEdgeStyle;rounded=0;orthogonalLoop=1;jettySize=auto;html=1;entryX=0;entryY=0.5;entryDx=0;entryDy=0;" edge="1" parent="469_iaXLmMVdcfXLewLD-1">
          <mxGeometry relative="1" as="geometry">
            <mxPoint x="530" y="268.25" as="targetPoint" />
          </mxGeometry>
        </mxCell>
        <mxCell id="469_iaXLmMVdcfXLewLD-13" style="edgeStyle=orthogonalEdgeStyle;rounded=0;orthogonalLoop=1;jettySize=auto;html=1;entryX=0;entryY=0.5;entryDx=0;entryDy=0;" edge="1" parent="469_iaXLmMVdcfXLewLD-1">
          <mxGeometry relative="1" as="geometry">
            <mxPoint x="370" y="268.25" as="targetPoint" />
          </mxGeometry>
        </mxCell>
        <mxCell id="469_iaXLmMVdcfXLewLD-16" style="edgeStyle=orthogonalEdgeStyle;rounded=0;orthogonalLoop=1;jettySize=auto;html=1;entryX=0;entryY=0.5;entryDx=0;entryDy=0;" edge="1" parent="469_iaXLmMVdcfXLewLD-1" source="469_iaXLmMVdcfXLewLD-17" target="469_iaXLmMVdcfXLewLD-19">
          <mxGeometry relative="1" as="geometry" />
        </mxCell>
        <mxCell id="469_iaXLmMVdcfXLewLD-17" value="User" style="shape=umlActor;verticalLabelPosition=bottom;verticalAlign=top;html=1;outlineConnect=0;" vertex="1" parent="469_iaXLmMVdcfXLewLD-1">
          <mxGeometry x="-820" y="270" width="30" height="60" as="geometry" />
        </mxCell>
        <mxCell id="469_iaXLmMVdcfXLewLD-18" style="edgeStyle=orthogonalEdgeStyle;rounded=0;orthogonalLoop=1;jettySize=auto;html=1;entryX=0.625;entryY=0.2;entryDx=0;entryDy=0;entryPerimeter=0;" edge="1" parent="469_iaXLmMVdcfXLewLD-1" source="469_iaXLmMVdcfXLewLD-19" target="469_iaXLmMVdcfXLewLD-25">
          <mxGeometry relative="1" as="geometry" />
        </mxCell>
        <mxCell id="469_iaXLmMVdcfXLewLD-19" value="Browser" style="rounded=1;whiteSpace=wrap;html=1;absoluteArcSize=1;arcSize=14;strokeWidth=2;fillColor=#ffe6cc;strokeColor=#d79b00;" vertex="1" parent="469_iaXLmMVdcfXLewLD-1">
          <mxGeometry x="-745" y="330" width="70" height="40" as="geometry" />
        </mxCell>
        <mxCell id="469_iaXLmMVdcfXLewLD-20" value="Micro-services Application Design" style="text;html=1;strokeColor=#6c8ebf;fillColor=#dae8fc;align=center;verticalAlign=middle;whiteSpace=wrap;rounded=0;" vertex="1" parent="469_iaXLmMVdcfXLewLD-1">
          <mxGeometry x="-730" y="40" width="270" height="30" as="geometry" />
        </mxCell>
        <mxCell id="469_iaXLmMVdcfXLewLD-21" style="edgeStyle=orthogonalEdgeStyle;rounded=0;orthogonalLoop=1;jettySize=auto;html=1;" edge="1" parent="469_iaXLmMVdcfXLewLD-1" source="469_iaXLmMVdcfXLewLD-23" target="469_iaXLmMVdcfXLewLD-9">
          <mxGeometry relative="1" as="geometry">
            <Array as="points">
              <mxPoint x="-445" y="280" />
              <mxPoint x="-445" y="240" />
            </Array>
          </mxGeometry>
        </mxCell>
        <mxCell id="469_iaXLmMVdcfXLewLD-22" style="edgeStyle=orthogonalEdgeStyle;rounded=0;orthogonalLoop=1;jettySize=auto;html=1;entryX=0;entryY=0.5;entryDx=0;entryDy=0;" edge="1" parent="469_iaXLmMVdcfXLewLD-1" source="469_iaXLmMVdcfXLewLD-23" target="469_iaXLmMVdcfXLewLD-28">
          <mxGeometry relative="1" as="geometry">
            <Array as="points">
              <mxPoint x="-445" y="460" />
              <mxPoint x="-445" y="485" />
            </Array>
          </mxGeometry>
        </mxCell>
        <mxCell id="469_iaXLmMVdcfXLewLD-23" value="&lt;div&gt;AWS&lt;/div&gt;&lt;div&gt;&lt;br&gt;&lt;/div&gt;&lt;div&gt;Load&lt;/div&gt;Balancer" style="rounded=0;whiteSpace=wrap;html=1;fillColor=#b1ddf0;strokeColor=#10739e;" vertex="1" parent="469_iaXLmMVdcfXLewLD-1">
          <mxGeometry x="-530" y="259.5" width="60" height="230" as="geometry" />
        </mxCell>
        <mxCell id="469_iaXLmMVdcfXLewLD-24" style="edgeStyle=orthogonalEdgeStyle;rounded=0;orthogonalLoop=1;jettySize=auto;html=1;" edge="1" parent="469_iaXLmMVdcfXLewLD-1" source="469_iaXLmMVdcfXLewLD-25" target="469_iaXLmMVdcfXLewLD-23">
          <mxGeometry relative="1" as="geometry" />
        </mxCell>
        <mxCell id="469_iaXLmMVdcfXLewLD-25" value="&lt;div&gt;DNS&lt;/div&gt;" style="ellipse;shape=cloud;whiteSpace=wrap;html=1;fillColor=none;gradientColor=none;" vertex="1" parent="469_iaXLmMVdcfXLewLD-1">
          <mxGeometry x="-675" y="410.75" width="60" height="55" as="geometry" />
        </mxCell>
        <mxCell id="Nu_XBSxZCabCRwXYq7IZ-29" value="" style="edgeStyle=orthogonalEdgeStyle;curved=1;rounded=0;orthogonalLoop=1;jettySize=auto;html=1;fontSize=13;fontColor=none;strokeWidth=1;fillColor=#FF9999;" edge="1" parent="469_iaXLmMVdcfXLewLD-1" source="469_iaXLmMVdcfXLewLD-28" target="469_iaXLmMVdcfXLewLD-39">
          <mxGeometry relative="1" as="geometry" />
        </mxCell>
        <mxCell id="469_iaXLmMVdcfXLewLD-28" value="&lt;div&gt;API&lt;/div&gt;&lt;div&gt;Getway&lt;/div&gt;&lt;div&gt;&lt;br&gt;&lt;/div&gt;&lt;div&gt;Instance&lt;/div&gt;&lt;div&gt;02&lt;/div&gt;" style="rounded=0;whiteSpace=wrap;html=1;fillColor=#b1ddf0;strokeColor=#10739e;" vertex="1" parent="469_iaXLmMVdcfXLewLD-1">
          <mxGeometry x="-420" y="380" width="60" height="210" as="geometry" />
        </mxCell>
        <mxCell id="469_iaXLmMVdcfXLewLD-32" value="Secondary DB Node" style="shape=cylinder3;whiteSpace=wrap;html=1;boundedLbl=1;backgroundOutline=1;size=15;fillColor=#bac8d3;strokeColor=#23445d;" vertex="1" parent="469_iaXLmMVdcfXLewLD-1">
          <mxGeometry x="50" y="330" width="80" height="80" as="geometry" />
        </mxCell>
        <mxCell id="7g_BsAm1kQergPTN9J-x-1" style="edgeStyle=orthogonalEdgeStyle;curved=1;rounded=0;orthogonalLoop=1;jettySize=auto;html=1;entryX=0;entryY=0.5;entryDx=0;entryDy=0;entryPerimeter=0;strokeWidth=1;fillColor=#FF9999;startArrow=none;exitX=1;exitY=0;exitDx=0;exitDy=75.375;exitPerimeter=0;" edge="1" parent="469_iaXLmMVdcfXLewLD-1" source="469_iaXLmMVdcfXLewLD-35" target="469_iaXLmMVdcfXLewLD-32">
          <mxGeometry relative="1" as="geometry">
            <Array as="points">
              <mxPoint x="-20" y="335" />
              <mxPoint x="-20" y="360" />
              <mxPoint x="30" y="360" />
              <mxPoint x="30" y="370" />
            </Array>
          </mxGeometry>
        </mxCell>
        <mxCell id="7g_BsAm1kQergPTN9J-x-3" style="edgeStyle=orthogonalEdgeStyle;curved=1;rounded=0;orthogonalLoop=1;jettySize=auto;html=1;entryX=0;entryY=0;entryDx=0;entryDy=52.5;entryPerimeter=0;strokeWidth=1;fillColor=#FF9999;" edge="1" parent="469_iaXLmMVdcfXLewLD-1" source="469_iaXLmMVdcfXLewLD-35" target="7g_BsAm1kQergPTN9J-x-0">
          <mxGeometry relative="1" as="geometry" />
        </mxCell>
        <mxCell id="Nu_XBSxZCabCRwXYq7IZ-15" style="edgeStyle=orthogonalEdgeStyle;curved=1;rounded=0;orthogonalLoop=1;jettySize=auto;html=1;strokeWidth=1;fillColor=#FF9999;exitX=0.5;exitY=0;exitDx=0;exitDy=0;exitPerimeter=0;entryX=1;entryY=0;entryDx=0;entryDy=75;entryPerimeter=0;" edge="1" parent="469_iaXLmMVdcfXLewLD-1" source="469_iaXLmMVdcfXLewLD-35" target="Nu_XBSxZCabCRwXYq7IZ-13">
          <mxGeometry relative="1" as="geometry">
            <Array as="points">
              <mxPoint x="-85" y="210" />
              <mxPoint x="160" y="210" />
              <mxPoint x="160" y="695" />
            </Array>
          </mxGeometry>
        </mxCell>
        <mxCell id="469_iaXLmMVdcfXLewLD-35" value="&lt;div&gt;OLTP DB&lt;/div&gt;&lt;div&gt;Primary DB Node&lt;/div&gt;&lt;div&gt;Shard DB&lt;br&gt;&lt;/div&gt;" style="shape=cylinder3;whiteSpace=wrap;html=1;boundedLbl=1;backgroundOutline=1;size=15;fillColor=#bac8d3;strokeColor=#23445d;" vertex="1" parent="469_iaXLmMVdcfXLewLD-1">
          <mxGeometry x="-125" y="259.5" width="80" height="110.5" as="geometry" />
        </mxCell>
        <mxCell id="469_iaXLmMVdcfXLewLD-36" value="" style="group" vertex="1" connectable="0" parent="469_iaXLmMVdcfXLewLD-1">
          <mxGeometry x="-315" y="450" width="120" height="150" as="geometry" />
        </mxCell>
        <mxCell id="469_iaXLmMVdcfXLewLD-37" value="&lt;div&gt;Monolithic&lt;/div&gt;&lt;div&gt;Business Logic&lt;/div&gt;&lt;div&gt;Example: &lt;br&gt;&lt;/div&gt;&lt;div&gt;Order-Servce &amp;amp; Delivery Service&lt;br&gt;&lt;/div&gt;&lt;div&gt;(DDD)&lt;br&gt;&lt;/div&gt;" style="rounded=1;whiteSpace=wrap;html=1;fillColor=#d5e8d4;strokeColor=#82b366;" vertex="1" parent="469_iaXLmMVdcfXLewLD-36">
          <mxGeometry y="22.94117647058823" width="120" height="127.05882352941174" as="geometry" />
        </mxCell>
        <mxCell id="469_iaXLmMVdcfXLewLD-38" value="SpringBoot" style="text;html=1;strokeColor=#d79b00;fillColor=#ffe6cc;align=center;verticalAlign=middle;whiteSpace=wrap;rounded=0;" vertex="1" parent="469_iaXLmMVdcfXLewLD-36">
          <mxGeometry y="18.352941176470587" width="120" height="18.705882352941174" as="geometry" />
        </mxCell>
        <mxCell id="469_iaXLmMVdcfXLewLD-39" value="&lt;b&gt;Rest API&lt;/b&gt;" style="text;html=1;strokeColor=#b85450;fillColor=#f8cecc;align=center;verticalAlign=middle;whiteSpace=wrap;rounded=0;" vertex="1" parent="469_iaXLmMVdcfXLewLD-36">
          <mxGeometry width="120" height="18.705882352941174" as="geometry" />
        </mxCell>
        <mxCell id="469_iaXLmMVdcfXLewLD-40" value="" style="group" vertex="1" connectable="0" parent="469_iaXLmMVdcfXLewLD-1">
          <mxGeometry x="-310" y="170" width="120" height="140" as="geometry" />
        </mxCell>
        <mxCell id="469_iaXLmMVdcfXLewLD-41" value="&lt;div&gt;Monolithic&lt;/div&gt;&lt;div&gt;Business Logic&lt;/div&gt;&lt;div&gt;Example: &lt;br&gt;&lt;/div&gt;&lt;div&gt;Order-Servce &amp;amp; Delivery Service&lt;br&gt;&lt;/div&gt;&lt;div&gt;(DDD)&lt;br&gt;&lt;/div&gt;" style="rounded=1;whiteSpace=wrap;html=1;fillColor=#d5e8d4;strokeColor=#82b366;" vertex="1" parent="469_iaXLmMVdcfXLewLD-40">
          <mxGeometry y="19.4" width="120" height="120.6" as="geometry" />
        </mxCell>
        <mxCell id="469_iaXLmMVdcfXLewLD-42" value="SpringBoot" style="text;html=1;strokeColor=#d79b00;fillColor=#ffe6cc;align=center;verticalAlign=middle;whiteSpace=wrap;rounded=0;" vertex="1" parent="469_iaXLmMVdcfXLewLD-40">
          <mxGeometry y="13.541666666666668" width="120" height="13.802083333333334" as="geometry" />
        </mxCell>
        <mxCell id="469_iaXLmMVdcfXLewLD-43" value="&lt;b&gt;Rest API&lt;/b&gt;" style="text;html=1;strokeColor=#b85450;fillColor=#f8cecc;align=center;verticalAlign=middle;whiteSpace=wrap;rounded=0;" vertex="1" parent="469_iaXLmMVdcfXLewLD-40">
          <mxGeometry width="120" height="13.802083333333334" as="geometry" />
        </mxCell>
        <mxCell id="469_iaXLmMVdcfXLewLD-57" value="Route 53" style="text;html=1;strokeColor=#b85450;fillColor=#f8cecc;align=center;verticalAlign=middle;whiteSpace=wrap;rounded=0;" vertex="1" parent="469_iaXLmMVdcfXLewLD-1">
          <mxGeometry x="-600" y="110" width="85" height="30" as="geometry" />
        </mxCell>
        <mxCell id="469_iaXLmMVdcfXLewLD-58" value="VM/EC2/EKS" style="text;html=1;strokeColor=#b85450;fillColor=#f8cecc;align=center;verticalAlign=middle;whiteSpace=wrap;rounded=0;" vertex="1" parent="469_iaXLmMVdcfXLewLD-1">
          <mxGeometry x="-600" y="140" width="85" height="30" as="geometry" />
        </mxCell>
        <mxCell id="7g_BsAm1kQergPTN9J-x-0" value="Secondary DB Node" style="shape=cylinder3;whiteSpace=wrap;html=1;boundedLbl=1;backgroundOutline=1;size=15;fillColor=#bac8d3;strokeColor=#23445d;" vertex="1" parent="469_iaXLmMVdcfXLewLD-1">
          <mxGeometry x="-10" y="220" width="80" height="80" as="geometry" />
        </mxCell>
        <mxCell id="7g_BsAm1kQergPTN9J-x-6" value="DB Clustor" style="text;html=1;strokeColor=#ae4132;fillColor=#fad9d5;align=center;verticalAlign=middle;whiteSpace=wrap;rounded=0;" vertex="1" parent="469_iaXLmMVdcfXLewLD-1">
          <mxGeometry x="-140" y="140" width="110" height="30" as="geometry" />
        </mxCell>
        <mxCell id="7g_BsAm1kQergPTN9J-x-8" value="&lt;div&gt;1. &lt;span class=&quot;ILfuVd&quot;&gt;&lt;span class=&quot;hgKElc&quot;&gt;Eventual Consistency&lt;/span&gt;&lt;/span&gt;&lt;/div&gt;&lt;div&gt;&lt;span class=&quot;ILfuVd&quot;&gt;&lt;span class=&quot;hgKElc&quot;&gt;2. High Availability&lt;/span&gt;&lt;/span&gt;&lt;/div&gt;&lt;div&gt;&lt;span class=&quot;ILfuVd&quot;&gt;&lt;span class=&quot;hgKElc&quot;&gt;3. Command Query Responsibility Segregation&amp;nbsp; &lt;br&gt;&lt;/span&gt;&lt;/span&gt;&lt;/div&gt;&lt;div&gt;&lt;span class=&quot;ILfuVd&quot;&gt;&lt;span class=&quot;hgKElc&quot;&gt;&lt;br&gt;&lt;/span&gt;&lt;/span&gt;&lt;/div&gt;" style="text;html=1;strokeColor=none;fillColor=none;align=left;verticalAlign=middle;whiteSpace=wrap;rounded=0;fontStyle=1" vertex="1" parent="469_iaXLmMVdcfXLewLD-1">
          <mxGeometry x="-30" y="140" width="160" height="80" as="geometry" />
        </mxCell>
        <mxCell id="7g_BsAm1kQergPTN9J-x-14" value="Tet" style="text;html=1;align=center;verticalAlign=middle;resizable=0;points=[];autosize=1;strokeColor=none;fillColor=none;" vertex="1" parent="469_iaXLmMVdcfXLewLD-1">
          <mxGeometry x="-775" y="540" width="30" height="20" as="geometry" />
        </mxCell>
        <mxCell id="Nu_XBSxZCabCRwXYq7IZ-0" value="Secondary DB Node" style="shape=cylinder3;whiteSpace=wrap;html=1;boundedLbl=1;backgroundOutline=1;size=15;fillColor=#bac8d3;strokeColor=#23445d;" vertex="1" parent="469_iaXLmMVdcfXLewLD-1">
          <mxGeometry x="40" y="540" width="80" height="80" as="geometry" />
        </mxCell>
        <mxCell id="Nu_XBSxZCabCRwXYq7IZ-1" style="edgeStyle=orthogonalEdgeStyle;curved=1;rounded=0;orthogonalLoop=1;jettySize=auto;html=1;entryX=0;entryY=0.5;entryDx=0;entryDy=0;entryPerimeter=0;strokeWidth=1;fillColor=#FF9999;" edge="1" parent="469_iaXLmMVdcfXLewLD-1" source="Nu_XBSxZCabCRwXYq7IZ-3" target="Nu_XBSxZCabCRwXYq7IZ-0">
          <mxGeometry relative="1" as="geometry" />
        </mxCell>
        <mxCell id="Nu_XBSxZCabCRwXYq7IZ-2" style="edgeStyle=orthogonalEdgeStyle;curved=1;rounded=0;orthogonalLoop=1;jettySize=auto;html=1;entryX=0;entryY=0;entryDx=0;entryDy=52.5;entryPerimeter=0;strokeWidth=1;fillColor=#FF9999;" edge="1" parent="469_iaXLmMVdcfXLewLD-1" source="Nu_XBSxZCabCRwXYq7IZ-3" target="Nu_XBSxZCabCRwXYq7IZ-4">
          <mxGeometry relative="1" as="geometry" />
        </mxCell>
        <mxCell id="Nu_XBSxZCabCRwXYq7IZ-16" style="edgeStyle=orthogonalEdgeStyle;curved=1;rounded=0;orthogonalLoop=1;jettySize=auto;html=1;entryX=1;entryY=0;entryDx=0;entryDy=35;entryPerimeter=0;strokeWidth=1;fillColor=#FF9999;exitX=0.855;exitY=0;exitDx=0;exitDy=4.35;exitPerimeter=0;" edge="1" parent="469_iaXLmMVdcfXLewLD-1" source="Nu_XBSxZCabCRwXYq7IZ-3" target="Nu_XBSxZCabCRwXYq7IZ-13">
          <mxGeometry relative="1" as="geometry">
            <Array as="points">
              <mxPoint x="-49" y="410" />
              <mxPoint x="130" y="410" />
              <mxPoint x="130" y="620" />
              <mxPoint x="120" y="620" />
              <mxPoint x="120" y="655" />
            </Array>
          </mxGeometry>
        </mxCell>
        <mxCell id="Nu_XBSxZCabCRwXYq7IZ-3" value="&lt;div&gt;OLTP DB&lt;/div&gt;&lt;div&gt;Primary DB Node&lt;/div&gt;&lt;div&gt;Shard DB&lt;br&gt;&lt;/div&gt;" style="shape=cylinder3;whiteSpace=wrap;html=1;boundedLbl=1;backgroundOutline=1;size=15;fillColor=#bac8d3;strokeColor=#23445d;" vertex="1" parent="469_iaXLmMVdcfXLewLD-1">
          <mxGeometry x="-117.5" y="469.5" width="80" height="120.5" as="geometry" />
        </mxCell>
        <mxCell id="Nu_XBSxZCabCRwXYq7IZ-4" value="Secondary DB Node" style="shape=cylinder3;whiteSpace=wrap;html=1;boundedLbl=1;backgroundOutline=1;size=15;fillColor=#bac8d3;strokeColor=#23445d;" vertex="1" parent="469_iaXLmMVdcfXLewLD-1">
          <mxGeometry x="10" y="420" width="80" height="80" as="geometry" />
        </mxCell>
        <mxCell id="Nu_XBSxZCabCRwXYq7IZ-11" style="edgeStyle=orthogonalEdgeStyle;curved=1;rounded=0;orthogonalLoop=1;jettySize=auto;html=1;entryX=0.855;entryY=1;entryDx=0;entryDy=-4.35;entryPerimeter=0;strokeWidth=1;fillColor=#FF9999;exitX=1;exitY=0.5;exitDx=0;exitDy=0;" edge="1" parent="469_iaXLmMVdcfXLewLD-1" source="Nu_XBSxZCabCRwXYq7IZ-5" target="469_iaXLmMVdcfXLewLD-35">
          <mxGeometry relative="1" as="geometry" />
        </mxCell>
        <mxCell id="Nu_XBSxZCabCRwXYq7IZ-12" style="edgeStyle=orthogonalEdgeStyle;curved=1;rounded=0;orthogonalLoop=1;jettySize=auto;html=1;entryX=0.719;entryY=0.004;entryDx=0;entryDy=0;entryPerimeter=0;strokeWidth=1;fillColor=#FF9999;exitX=1;exitY=0.5;exitDx=0;exitDy=0;" edge="1" parent="469_iaXLmMVdcfXLewLD-1" source="Nu_XBSxZCabCRwXYq7IZ-5" target="Nu_XBSxZCabCRwXYq7IZ-3">
          <mxGeometry relative="1" as="geometry" />
        </mxCell>
        <mxCell id="Nu_XBSxZCabCRwXYq7IZ-5" value="&lt;div&gt;Shard Router&lt;/div&gt;&lt;div&gt;Hash Key&lt;br&gt;&lt;/div&gt;" style="rhombus;whiteSpace=wrap;html=1;fillColor=none;gradientColor=none;align=center;" vertex="1" parent="469_iaXLmMVdcfXLewLD-1">
          <mxGeometry x="-210" y="359.5" width="110" height="110" as="geometry" />
        </mxCell>
        <mxCell id="Nu_XBSxZCabCRwXYq7IZ-9" style="edgeStyle=orthogonalEdgeStyle;curved=1;rounded=0;orthogonalLoop=1;jettySize=auto;html=1;entryX=0.5;entryY=0;entryDx=0;entryDy=0;strokeWidth=1;fillColor=#FF9999;" edge="1" parent="469_iaXLmMVdcfXLewLD-1" source="469_iaXLmMVdcfXLewLD-41" target="Nu_XBSxZCabCRwXYq7IZ-5">
          <mxGeometry relative="1" as="geometry">
            <Array as="points">
              <mxPoint x="-170" y="250" />
              <mxPoint x="-170" y="310" />
              <mxPoint x="-155" y="310" />
            </Array>
          </mxGeometry>
        </mxCell>
        <mxCell id="Nu_XBSxZCabCRwXYq7IZ-10" style="edgeStyle=orthogonalEdgeStyle;curved=1;rounded=0;orthogonalLoop=1;jettySize=auto;html=1;entryX=0.5;entryY=1;entryDx=0;entryDy=0;strokeWidth=1;fillColor=#FF9999;exitX=1;exitY=0.5;exitDx=0;exitDy=0;" edge="1" parent="469_iaXLmMVdcfXLewLD-1" source="469_iaXLmMVdcfXLewLD-37" target="Nu_XBSxZCabCRwXYq7IZ-5">
          <mxGeometry relative="1" as="geometry" />
        </mxCell>
        <mxCell id="Nu_XBSxZCabCRwXYq7IZ-13" value="&lt;div&gt;OLAP DB&lt;/div&gt;Data Warehouse" style="shape=cylinder3;whiteSpace=wrap;html=1;boundedLbl=1;backgroundOutline=1;size=15;fillColor=#bac8d3;strokeColor=#23445d;" vertex="1" parent="469_iaXLmMVdcfXLewLD-1">
          <mxGeometry x="-150" y="620" width="190" height="110" as="geometry" />
        </mxCell>
        <mxCell id="Nu_XBSxZCabCRwXYq7IZ-19" value="ETL" style="text;html=1;strokeColor=#ae4132;fillColor=#fad9d5;align=center;verticalAlign=middle;whiteSpace=wrap;rounded=0;fontStyle=1;fontSize=20;" vertex="1" parent="469_iaXLmMVdcfXLewLD-1">
          <mxGeometry x="100" y="490" width="60" height="30" as="geometry" />
        </mxCell>
        <mxCell id="Nu_XBSxZCabCRwXYq7IZ-25" value="Replication" style="text;html=1;strokeColor=#ae4132;fillColor=#fad9d5;align=center;verticalAlign=middle;whiteSpace=wrap;rounded=0;labelBackgroundColor=#FFCC99;fontSize=13;fontStyle=1" vertex="1" parent="469_iaXLmMVdcfXLewLD-1">
          <mxGeometry x="-12" y="505" width="80" height="30" as="geometry" />
        </mxCell>
        <mxCell id="Nu_XBSxZCabCRwXYq7IZ-26" value="Replication" style="text;html=1;strokeColor=#ae4132;fillColor=#fad9d5;align=center;verticalAlign=middle;whiteSpace=wrap;rounded=0;labelBackgroundColor=#FFCC99;fontSize=13;fontStyle=1" vertex="1" parent="469_iaXLmMVdcfXLewLD-1">
          <mxGeometry x="-30" y="310" width="80" height="30" as="geometry" />
        </mxCell>
      </root>
    </mxGraphModel>
  </diagram>
  <diagram name="Copy of Page-1" id="jtWCzOFTujM13rQIrdKP">
    <mxGraphModel dx="782" dy="392" grid="1" gridSize="10" guides="1" tooltips="1" connect="1" arrows="1" fold="1" page="1" pageScale="1" pageWidth="850" pageHeight="1100" math="0" shadow="0">
      <root>
        <mxCell id="95Y9TZv2lEA_FJ6hqlyf-0" />
        <mxCell id="95Y9TZv2lEA_FJ6hqlyf-1" parent="95Y9TZv2lEA_FJ6hqlyf-0" />
        <mxCell id="95Y9TZv2lEA_FJ6hqlyf-29" value="" style="rounded=1;whiteSpace=wrap;html=1;" vertex="1" parent="95Y9TZv2lEA_FJ6hqlyf-1">
          <mxGeometry y="160" width="820" height="278" as="geometry" />
        </mxCell>
        <mxCell id="95Y9TZv2lEA_FJ6hqlyf-30" value="" style="rounded=0;whiteSpace=wrap;html=1;" vertex="1" parent="95Y9TZv2lEA_FJ6hqlyf-1">
          <mxGeometry x="280" y="218" width="500" height="190" as="geometry" />
        </mxCell>
        <mxCell id="95Y9TZv2lEA_FJ6hqlyf-31" value="VM/EC2/EKS" style="text;html=1;strokeColor=#b85450;fillColor=#f8cecc;align=center;verticalAlign=middle;whiteSpace=wrap;rounded=0;" vertex="1" parent="95Y9TZv2lEA_FJ6hqlyf-1">
          <mxGeometry x="280" y="218" width="85" height="30" as="geometry" />
        </mxCell>
        <mxCell id="95Y9TZv2lEA_FJ6hqlyf-32" style="edgeStyle=orthogonalEdgeStyle;rounded=0;orthogonalLoop=1;jettySize=auto;html=1;entryX=0;entryY=0.5;entryDx=0;entryDy=0;" edge="1" parent="95Y9TZv2lEA_FJ6hqlyf-1" source="95Y9TZv2lEA_FJ6hqlyf-33" target="95Y9TZv2lEA_FJ6hqlyf-40">
          <mxGeometry relative="1" as="geometry" />
        </mxCell>
        <mxCell id="95Y9TZv2lEA_FJ6hqlyf-33" value="&lt;div&gt;Spring-Security&lt;/div&gt;" style="rhombus;whiteSpace=wrap;html=1;fillColor=#e1d5e7;strokeColor=#9673a6;" vertex="1" parent="95Y9TZv2lEA_FJ6hqlyf-1">
          <mxGeometry x="380" y="270" width="130" height="80" as="geometry" />
        </mxCell>
        <mxCell id="95Y9TZv2lEA_FJ6hqlyf-34" style="edgeStyle=orthogonalEdgeStyle;rounded=0;orthogonalLoop=1;jettySize=auto;html=1;entryX=0;entryY=0.5;entryDx=0;entryDy=0;" edge="1" parent="95Y9TZv2lEA_FJ6hqlyf-1" source="95Y9TZv2lEA_FJ6hqlyf-35" target="95Y9TZv2lEA_FJ6hqlyf-33">
          <mxGeometry relative="1" as="geometry" />
        </mxCell>
        <mxCell id="95Y9TZv2lEA_FJ6hqlyf-35" value="API" style="whiteSpace=wrap;html=1;aspect=fixed;fillColor=#f9f7ed;strokeColor=#36393d;" vertex="1" parent="95Y9TZv2lEA_FJ6hqlyf-1">
          <mxGeometry x="310" y="292.5" width="35" height="35" as="geometry" />
        </mxCell>
        <mxCell id="95Y9TZv2lEA_FJ6hqlyf-36" style="edgeStyle=orthogonalEdgeStyle;rounded=0;orthogonalLoop=1;jettySize=auto;html=1;entryX=0;entryY=0.5;entryDx=0;entryDy=0;exitX=1.017;exitY=0.404;exitDx=0;exitDy=0;exitPerimeter=0;" edge="1" parent="95Y9TZv2lEA_FJ6hqlyf-1">
          <mxGeometry relative="1" as="geometry">
            <Array as="points">
              <mxPoint x="270" y="314" />
              <mxPoint x="270" y="311" />
            </Array>
            <mxPoint x="261.02" y="313.91999999999996" as="sourcePoint" />
            <mxPoint x="310" y="311" as="targetPoint" />
          </mxGeometry>
        </mxCell>
        <mxCell id="95Y9TZv2lEA_FJ6hqlyf-37" value="&lt;div&gt;A&lt;/div&gt;&lt;div&gt;P&lt;/div&gt;&lt;div&gt;I&lt;/div&gt;&lt;div&gt;&lt;br&gt;&lt;/div&gt;&lt;div&gt;G&lt;/div&gt;&lt;div&gt;E&lt;/div&gt;&lt;div&gt;T&lt;/div&gt;&lt;div&gt;W&lt;/div&gt;&lt;div&gt;A&lt;/div&gt;&lt;div&gt;Y&lt;/div&gt;&lt;div&gt;&lt;br&gt;&lt;/div&gt;" style="rounded=0;whiteSpace=wrap;html=1;fillColor=#b1ddf0;strokeColor=#10739e;" vertex="1" parent="95Y9TZv2lEA_FJ6hqlyf-1">
          <mxGeometry x="200" y="220" width="60" height="188" as="geometry" />
        </mxCell>
        <mxCell id="95Y9TZv2lEA_FJ6hqlyf-38" style="edgeStyle=orthogonalEdgeStyle;rounded=0;orthogonalLoop=1;jettySize=auto;html=1;entryX=0.5;entryY=0;entryDx=0;entryDy=0;" edge="1" parent="95Y9TZv2lEA_FJ6hqlyf-1" source="95Y9TZv2lEA_FJ6hqlyf-40" target="95Y9TZv2lEA_FJ6hqlyf-33">
          <mxGeometry relative="1" as="geometry">
            <Array as="points">
              <mxPoint x="580" y="248" />
              <mxPoint x="445" y="248" />
            </Array>
          </mxGeometry>
        </mxCell>
        <mxCell id="95Y9TZv2lEA_FJ6hqlyf-39" style="edgeStyle=orthogonalEdgeStyle;rounded=0;orthogonalLoop=1;jettySize=auto;html=1;entryX=0;entryY=0.5;entryDx=0;entryDy=0;entryPerimeter=0;" edge="1" parent="95Y9TZv2lEA_FJ6hqlyf-1" source="95Y9TZv2lEA_FJ6hqlyf-40" target="95Y9TZv2lEA_FJ6hqlyf-41">
          <mxGeometry relative="1" as="geometry" />
        </mxCell>
        <mxCell id="95Y9TZv2lEA_FJ6hqlyf-40" value="&lt;div&gt;Application Server&lt;/div&gt;&lt;div&gt;or&lt;/div&gt;&lt;div&gt;Business Logic&lt;/div&gt;&lt;div&gt;Example: OrderServce, DeliveryService&lt;/div&gt;" style="rounded=1;whiteSpace=wrap;html=1;fillColor=#d5e8d4;strokeColor=#82b366;" vertex="1" parent="95Y9TZv2lEA_FJ6hqlyf-1">
          <mxGeometry x="540" y="265" width="120" height="90" as="geometry" />
        </mxCell>
        <mxCell id="95Y9TZv2lEA_FJ6hqlyf-41" value="App DB" style="shape=cylinder3;whiteSpace=wrap;html=1;boundedLbl=1;backgroundOutline=1;size=15;fillColor=#bac8d3;strokeColor=#23445d;" vertex="1" parent="95Y9TZv2lEA_FJ6hqlyf-1">
          <mxGeometry x="700" y="270" width="60" height="80" as="geometry" />
        </mxCell>
        <mxCell id="95Y9TZv2lEA_FJ6hqlyf-42" style="edgeStyle=orthogonalEdgeStyle;rounded=0;orthogonalLoop=1;jettySize=auto;html=1;entryX=0;entryY=0.5;entryDx=0;entryDy=0;" edge="1" parent="95Y9TZv2lEA_FJ6hqlyf-1" source="95Y9TZv2lEA_FJ6hqlyf-43" target="95Y9TZv2lEA_FJ6hqlyf-45">
          <mxGeometry relative="1" as="geometry" />
        </mxCell>
        <mxCell id="95Y9TZv2lEA_FJ6hqlyf-43" value="User" style="shape=umlActor;verticalLabelPosition=bottom;verticalAlign=top;html=1;outlineConnect=0;" vertex="1" parent="95Y9TZv2lEA_FJ6hqlyf-1">
          <mxGeometry x="20" y="284" width="30" height="60" as="geometry" />
        </mxCell>
        <mxCell id="95Y9TZv2lEA_FJ6hqlyf-44" style="edgeStyle=orthogonalEdgeStyle;rounded=0;orthogonalLoop=1;jettySize=auto;html=1;entryX=0;entryY=0.5;entryDx=0;entryDy=0;" edge="1" parent="95Y9TZv2lEA_FJ6hqlyf-1" source="95Y9TZv2lEA_FJ6hqlyf-45" target="95Y9TZv2lEA_FJ6hqlyf-37">
          <mxGeometry relative="1" as="geometry" />
        </mxCell>
        <mxCell id="95Y9TZv2lEA_FJ6hqlyf-45" value="Browser" style="rounded=1;whiteSpace=wrap;html=1;absoluteArcSize=1;arcSize=14;strokeWidth=2;fillColor=#ffe6cc;strokeColor=#d79b00;" vertex="1" parent="95Y9TZv2lEA_FJ6hqlyf-1">
          <mxGeometry x="90" y="294" width="80" height="40" as="geometry" />
        </mxCell>
        <mxCell id="95Y9TZv2lEA_FJ6hqlyf-46" value="Monolithic Application Design" style="text;html=1;strokeColor=#6c8ebf;fillColor=#dae8fc;align=center;verticalAlign=middle;whiteSpace=wrap;rounded=0;" vertex="1" parent="95Y9TZv2lEA_FJ6hqlyf-1">
          <mxGeometry x="50" y="160" width="270" height="30" as="geometry" />
        </mxCell>
      </root>
    </mxGraphModel>
  </diagram>
</mxfile>
